<svg viewBox="0 0 135 40" xmlns="http://www.w3.org/2000/svg"><rect height="40" rx="5" width="135"/><path d="M130 .8a4.2 4.2 0 014.2 4.2v30a4.2 4.2 0 01-4.2 4.2H5A4.2 4.2 0 01.8 35V5A4.2 4.2 0 015 .8zm0-.8H5C2.25 0 0 2.25 0 5v30c0 2.75 2.25 5 5 5h125c2.75 0 5-2.25 5-5V5c0-2.75-2.25-5-5-5z" fill="#a6a6a6"/><g fill="#fff"><path d="M47.42 10.24c0 .84-.25 1.51-.75 2-.56.59-1.3.89-2.2.89s-1.6-.3-2.21-.9-.91-1.35-.91-2.23.3-1.63.91-2.23 1.34-.9 2.21-.9c.43 0 .84.08 1.23.25s.7.39.94.67l-.53.53c-.4-.47-.94-.71-1.64-.71-.63 0-1.18.22-1.64.67-.46.44-.69 1.02-.69 1.73s.23 1.29.69 1.73 1.01.67 1.64.67c.67 0 1.23-.22 1.68-.67.29-.29.46-.7.5-1.22h-2.18V9.8h2.91c.03.16.04.31.04.45zm4.61-2.5H49.3v1.9h2.46v.72H49.3v1.9h2.73V13h-3.5V7h3.5zM55.28 13h-.77V7.74h-1.68V7h4.12v.74h-1.68V13zm4.66 0V7h.77v6zm4.19 0h-.77V7.74h-1.68V7h4.12v.74h-1.68V13zm9.48-.78c-.59.61-1.32.91-2.2.91s-1.61-.3-2.2-.91-.88-1.35-.88-2.22.29-1.62.88-2.22c.59-.61 1.32-.91 2.2-.91s1.6.3 2.2.91c.59.61.89 1.35.89 2.22s-.3 1.62-.88 2.22zm-3.83-.5c.44.45.99.67 1.63.67s1.19-.22 1.63-.67.67-1.02.67-1.72-.22-1.27-.67-1.72c-.44-.45-.99-.67-1.63-.67s-1.19.22-1.63.67-.67 1.02-.67 1.72.22 1.27.67 1.72zm5.8 1.28V7h.94l2.92 4.67h.03l-.03-1.16V7h.77v6h-.8l-3.05-4.89h-.03l.03 1.16v3.74h-.77z" stroke="#fff" stroke-miterlimit="10" stroke-width=".2"/><path d="M68.14 21.75c-2.35 0-4.27 1.79-4.27 4.25s1.92 4.25 4.27 4.25 4.27-1.8 4.27-4.25-1.92-4.25-4.27-4.25zm0 6.83c-1.29 0-2.4-1.06-2.4-2.58s1.11-2.58 2.4-2.58 2.4 1.05 2.4 2.58-1.11 2.58-2.4 2.58zm-9.32-6.83c-2.35 0-4.27 1.79-4.27 4.25s1.92 4.25 4.27 4.25 4.27-1.8 4.27-4.25-1.92-4.25-4.27-4.25zm0 6.83c-1.29 0-2.4-1.06-2.4-2.58s1.11-2.58 2.4-2.58 2.4 1.05 2.4 2.58-1.11 2.58-2.4 2.58zm-11.08-5.52v1.8h4.32c-.13 1.02-.47 1.76-.98 2.27-.63.63-1.61 1.32-3.33 1.32-2.66 0-4.74-2.14-4.74-4.8s2.08-4.8 4.74-4.8c1.43 0 2.48.56 3.25 1.29l1.27-1.27c-1.08-1.03-2.51-1.82-4.53-1.82-3.64 0-6.7 2.96-6.7 6.61s3.06 6.61 6.7 6.61c1.97 0 3.45-.64 4.61-1.85 1.19-1.19 1.56-2.87 1.56-4.22 0-.42-.03-.81-.1-1.13h-6.07zm45.31 1.4c-.35-.95-1.43-2.71-3.64-2.71S85.4 23.47 85.4 26c0 2.38 1.8 4.25 4.22 4.25 1.95 0 3.08-1.19 3.54-1.88l-1.45-.97c-.48.71-1.14 1.18-2.09 1.18s-1.63-.44-2.06-1.29l5.69-2.35-.19-.48zm-5.8 1.42c-.05-1.64 1.27-2.48 2.22-2.48.74 0 1.37.37 1.58.9zM82.63 30h1.87V17.5h-1.87zm-3.06-7.3h-.06c-.42-.5-1.22-.95-2.24-.95-2.13 0-4.08 1.87-4.08 4.27s1.95 4.24 4.08 4.24c1.02 0 1.82-.45 2.24-.97h.06v.61c0 1.63-.87 2.5-2.27 2.5-1.14 0-1.85-.82-2.14-1.51l-1.63.68c.47 1.13 1.71 2.51 3.77 2.51 2.19 0 4.04-1.29 4.04-4.43v-7.64h-1.77zm-2.15 5.88c-1.29 0-2.37-1.08-2.37-2.56s1.08-2.59 2.37-2.59 2.27 1.1 2.27 2.59-1 2.56-2.27 2.56zm24.39-11.08h-4.47V30h1.87v-4.74h2.61c2.07 0 4.1-1.5 4.1-3.88s-2.03-3.88-4.1-3.88zm.04 6.02H99.2v-4.29h2.65c1.4 0 2.19 1.16 2.19 2.14s-.79 2.14-2.19 2.14zm11.54-1.79c-1.35 0-2.75.6-3.33 1.91l1.66.69c.35-.69 1.01-.92 1.7-.92.96 0 1.95.58 1.96 1.61v.13c-.34-.19-1.06-.48-1.95-.48-1.79 0-3.6.98-3.6 2.81 0 1.67 1.46 2.75 3.1 2.75 1.25 0 1.95-.56 2.38-1.22h.06v.97h1.8v-4.79c0-2.22-1.66-3.46-3.8-3.46zm-.23 6.85c-.61 0-1.46-.31-1.46-1.06 0-.96 1.06-1.33 1.98-1.33.82 0 1.21.18 1.7.42a2.257 2.257 0 01-2.22 1.98zM123.74 22l-2.14 5.42h-.06L119.32 22h-2.01l3.33 7.58-1.9 4.21h1.95L125.82 22h-2.07zm-16.8 8h1.87V17.5h-1.87z"/></g><path d="M20.72 19.42l-10.65 11.3a2.877 2.877 0 004.24 1.73l.03-.02 11.98-6.91-5.61-6.11z" fill="#ea4335"/><path d="M31.49 17.5h-.01l-5.17-3.01-5.83 5.19 5.85 5.85 5.15-2.97c.9-.49 1.51-1.44 1.51-2.53s-.6-2.04-1.5-2.52z" fill="#fbbc04"/><path d="M10.07 9.28c-.06.24-.1.48-.1.74v19.97c0 .26.03.5.1.74l11.01-11.01z" fill="#4285f4"/><path d="M20.8 20l5.51-5.51-11.97-6.94a2.889 2.889 0 00-4.27 1.72L20.8 19.99z" fill="#34a853"/></svg>