<svg width="176" height="36" viewBox="0 0 176 36" fill="none" xmlns="http://www.w3.org/2000/svg">
<path d="M34.168 1.016V1.976C33.464 2.296 32.696 2.936 31.864 3.896C31.032 4.824 30.28 6.248 29.608 8.168L19.864 35.048C19.544 35.016 19.192 35 18.808 35C18.456 34.968 18.104 34.952 17.752 34.952C17.4 34.952 17.032 34.968 16.648 35C16.296 35 15.96 35.016 15.64 35.048L3.256 5.048C2.808 3.896 2.312 3.112 1.768 2.696C1.256 2.248 0.776 2.008 0.328 1.976V1.016C1.384 1.048 2.616 1.08 4.024 1.112C5.464 1.144 6.904 1.16 8.344 1.16C9.912 1.16 11.368 1.144 12.712 1.112C14.088 1.08 15.192 1.048 16.024 1.016V1.976C15 2.008 14.2 2.12 13.624 2.312C13.08 2.504 12.76 2.888 12.664 3.464C12.6 4.008 12.792 4.856 13.24 6.008L21.928 27.752L20.872 29.096L26.92 12.488C27.848 9.896 28.328 7.848 28.36 6.344C28.392 4.808 28.056 3.704 27.352 3.032C26.648 2.36 25.656 2.008 24.376 1.976V1.016C25.528 1.048 26.568 1.08 27.496 1.112C28.456 1.144 29.464 1.16 30.52 1.16C31.192 1.16 31.848 1.144 32.488 1.112C33.128 1.08 33.688 1.048 34.168 1.016ZM50.809 1.016V1.976C49.817 2.008 49.065 2.136 48.553 2.36C48.041 2.552 47.705 2.936 47.545 3.512C47.385 4.056 47.305 4.92 47.305 6.104V29.912C47.305 31.064 47.385 31.928 47.545 32.504C47.737 33.08 48.073 33.464 48.553 33.656C49.065 33.848 49.817 33.976 50.809 34.04V35C49.913 34.936 48.761 34.904 47.353 34.904C45.977 34.872 44.585 34.856 43.177 34.856C41.545 34.856 40.009 34.872 38.569 34.904C37.129 34.904 35.977 34.936 35.113 35V34.04C36.105 33.976 36.841 33.848 37.321 33.656C37.833 33.464 38.169 33.08 38.329 32.504C38.521 31.928 38.617 31.064 38.617 29.912V6.104C38.617 4.92 38.521 4.056 38.329 3.512C38.169 2.936 37.833 2.552 37.321 2.36C36.841 2.136 36.105 2.008 35.113 1.976V1.016C35.977 1.048 37.129 1.08 38.569 1.112C40.009 1.144 41.545 1.16 43.177 1.16C44.585 1.16 45.977 1.144 47.353 1.112C48.761 1.08 49.913 1.048 50.809 1.016ZM85.4493 1.016V1.976C84.7453 2.296 83.9773 2.936 83.1453 3.896C82.3133 4.824 81.5613 6.248 80.8893 8.168L71.1453 35.048C70.8253 35.016 70.4733 35 70.0893 35C69.7373 34.968 69.3853 34.952 69.0333 34.952C68.6813 34.952 68.3133 34.968 67.9293 35C67.5773 35 67.2413 35.016 66.9213 35.048L54.5373 5.048C54.0893 3.896 53.5933 3.112 53.0493 2.696C52.5373 2.248 52.0572 2.008 51.6092 1.976V1.016C52.6653 1.048 53.8973 1.08 55.3053 1.112C56.7453 1.144 58.1853 1.16 59.6253 1.16C61.1933 1.16 62.6493 1.144 63.9933 1.112C65.3693 1.08 66.4733 1.048 67.3053 1.016V1.976C66.2813 2.008 65.4813 2.12 64.9053 2.312C64.3613 2.504 64.0413 2.888 63.9453 3.464C63.8813 4.008 64.0733 4.856 64.5213 6.008L73.2093 27.752L72.1533 29.096L78.2013 12.488C79.1293 9.896 79.6093 7.848 79.6413 6.344C79.6733 4.808 79.3373 3.704 78.6333 3.032C77.9293 2.36 76.9373 2.008 75.6573 1.976V1.016C76.8093 1.048 77.8493 1.08 78.7773 1.112C79.7373 1.144 80.7453 1.16 81.8013 1.16C82.4733 1.16 83.1293 1.144 83.7693 1.112C84.4093 1.08 84.9693 1.048 85.4493 1.016ZM102.09 1.016V1.976C101.098 2.008 100.346 2.136 99.8343 2.36C99.3223 2.552 98.9863 2.936 98.8263 3.512C98.6663 4.056 98.5863 4.92 98.5863 6.104V29.912C98.5863 31.064 98.6663 31.928 98.8263 32.504C99.0183 33.08 99.3543 33.464 99.8343 33.656C100.346 33.848 101.098 33.976 102.09 34.04V35C101.194 34.936 100.042 34.904 98.6343 34.904C97.2583 34.872 95.8663 34.856 94.4583 34.856C92.8263 34.856 91.2903 34.872 89.8503 34.904C88.4103 34.904 87.2583 34.936 86.3943 35V34.04C87.3863 33.976 88.1223 33.848 88.6023 33.656C89.1143 33.464 89.4503 33.08 89.6103 32.504C89.8023 31.928 89.8983 31.064 89.8983 29.912V6.104C89.8983 4.92 89.8023 4.056 89.6103 3.512C89.4503 2.936 89.1143 2.552 88.6023 2.36C88.1223 2.136 87.3863 2.008 86.3943 1.976V1.016C87.2583 1.048 88.4103 1.08 89.8503 1.112C91.2903 1.144 92.8263 1.16 94.4583 1.16C95.8663 1.16 97.2583 1.144 98.6343 1.112C100.042 1.08 101.194 1.048 102.09 1.016ZM137.163 1.016V1.976C136.203 2.136 135.467 2.44 134.955 2.888C134.443 3.336 134.091 4.024 133.899 4.952C133.739 5.88 133.659 7.192 133.659 8.888V35.048C133.243 34.984 132.795 34.952 132.315 34.952C131.835 34.952 131.323 34.984 130.779 35.048L109.707 10.232V26.36C109.707 28.312 109.803 29.816 109.995 30.872C110.187 31.896 110.619 32.632 111.291 33.08C111.963 33.528 113.019 33.848 114.459 34.04V35C113.851 34.936 113.035 34.904 112.011 34.904C111.019 34.872 110.075 34.856 109.179 34.856C108.475 34.856 107.739 34.872 106.971 34.904C106.235 34.904 105.611 34.936 105.099 35V34.04C106.123 33.848 106.875 33.544 107.355 33.128C107.867 32.68 108.203 31.992 108.363 31.064C108.523 30.104 108.603 28.792 108.603 27.128V6.104C108.603 4.92 108.523 4.056 108.363 3.512C108.203 2.936 107.867 2.552 107.355 2.36C106.843 2.136 106.091 2.008 105.099 1.976V1.016C105.611 1.048 106.235 1.08 106.971 1.112C107.739 1.144 108.475 1.16 109.179 1.16C109.979 1.16 110.747 1.144 111.483 1.112C112.219 1.08 112.891 1.048 113.499 1.016L132.555 22.808V9.656C132.555 7.704 132.459 6.216 132.267 5.192C132.107 4.136 131.691 3.384 131.019 2.936C130.379 2.456 129.307 2.136 127.802 1.976V1.016C128.443 1.048 129.259 1.08 130.251 1.112C131.275 1.144 132.219 1.16 133.083 1.16C133.851 1.16 134.603 1.144 135.339 1.112C136.075 1.08 136.683 1.048 137.163 1.016ZM157.549 0.343997C161.069 0.343997 164.141 1.032 166.765 2.408C169.389 3.784 171.421 5.768 172.861 8.36C174.333 10.92 175.069 14.04 175.069 17.72C175.069 21.304 174.317 24.44 172.813 27.128C171.341 29.816 169.277 31.912 166.621 33.416C163.965 34.92 160.925 35.672 157.501 35.672C154.013 35.672 150.941 34.984 148.285 33.608C145.661 32.232 143.613 30.248 142.141 27.656C140.701 25.064 139.981 21.944 139.981 18.296C139.981 14.712 140.733 11.576 142.237 8.888C143.773 6.2 145.853 4.104 148.477 2.6C151.101 1.096 154.125 0.343997 157.549 0.343997ZM157.357 1.208C155.661 1.208 154.189 1.928 152.941 3.368C151.693 4.808 150.717 6.792 150.013 9.32C149.341 11.848 149.005 14.776 149.005 18.104C149.005 21.496 149.389 24.456 150.157 26.984C150.957 29.48 152.013 31.416 153.325 32.792C154.637 34.136 156.093 34.808 157.693 34.808C159.389 34.808 160.861 34.088 162.109 32.648C163.389 31.208 164.365 29.224 165.037 26.696C165.709 24.136 166.045 21.208 166.045 17.912C166.045 14.488 165.661 11.528 164.893 9.032C164.125 6.536 163.069 4.616 161.725 3.272C160.413 1.896 158.957 1.208 157.357 1.208Z" fill="#7B1E3B"/>
</svg>
