<svg width="50" height="50" viewBox="0 0 50 50" fill="none" xmlns="http://www.w3.org/2000/svg">
<path d="M16.25 30.6248H40L44.375 13.1248H11.875" stroke="#F3E8E8" stroke-width="2" stroke-linecap="round" stroke-linejoin="round"/>
<path d="M18.0942 38.0018L10.625 8.125H5.625" stroke="#F3E8E8" stroke-width="2" stroke-linecap="round" stroke-linejoin="round"/>
<path d="M16.5012 38.4367C17.506 37.8566 18.744 37.8566 19.7488 38.4367C20.7536 39.0169 21.3726 40.089 21.3726 41.2492C21.3726 42.4095 20.7536 43.4816 19.7488 44.0617C18.744 44.6419 17.506 44.6419 16.5012 44.0617C15.4964 43.4816 14.8774 42.4095 14.8774 41.2492C14.8774 40.089 15.4964 39.0169 16.5012 38.4367Z" stroke="#F3E8E8" stroke-width="2" stroke-linecap="round" stroke-linejoin="round"/>
<path d="M19.0118 38.125H37.8631" stroke="#F3E8E8" stroke-width="2" stroke-linecap="round" stroke-linejoin="round"/>
<path d="M37.1262 38.4367C38.131 37.8566 39.369 37.8566 40.3738 38.4367C41.3786 39.0169 41.9976 40.089 41.9976 41.2492C41.9976 42.4095 41.3786 43.4816 40.3738 44.0617C39.369 44.6419 38.131 44.6419 37.1262 44.0617C36.1214 43.4816 35.5024 42.4095 35.5024 41.2492C35.5024 40.089 36.1214 39.0169 37.1262 38.4367Z" stroke="#F3E8E8" stroke-width="2" stroke-linecap="round" stroke-linejoin="round"/>
</svg>
