<svg width="81" height="80" viewBox="0 0 81 80" fill="none" xmlns="http://www.w3.org/2000/svg">
<path d="M48.1865 47.4983L51.4658 50.7776M51.4664 55.0168L64.1949 67.7487C65.3658 68.9199 67.2645 68.9201 68.4355 67.749C69.6064 66.5782 69.6065 64.6799 68.4358 63.5089L55.7073 50.777C54.5364 49.6058 52.6377 49.6057 51.4667 50.7767C50.2958 51.9476 50.2957 53.8458 51.4664 55.0168Z" stroke="#C2CCDE" stroke-linecap="round" stroke-linejoin="round"/>
<path d="M16.3381 29.0688C18.0998 22.494 23.2354 17.3584 29.8103 15.5967C36.3852 13.8349 43.4005 15.7147 48.2137 20.5278C53.0268 25.341 54.9066 32.3563 53.1448 38.9312C51.3831 45.5061 46.2475 50.6416 39.6726 52.4034C33.0977 54.1651 26.0824 52.2854 21.2693 47.4722C16.4561 42.6591 14.5764 35.6437 16.3381 29.0688Z" stroke="#C2CCDE" stroke-linecap="round" stroke-linejoin="round"/>
</svg>
