<svg width="50" height="50" viewBox="0 0 50 50" fill="none" xmlns="http://www.w3.org/2000/svg">
<path d="M37.5 43.75H12.5C11.1193 43.75 10 42.6307 10 41.25V40.4148C10 36.7819 12.2538 33.5303 15.6556 32.2553C21.6806 29.9972 28.3194 29.9972 34.3444 32.2553C37.7462 33.5303 40 36.7819 40 40.4148V41.25C40 42.6307 38.8807 43.75 37.5 43.75Z" stroke="#F3E8E8" stroke-width="2" stroke-linecap="round" stroke-linejoin="round"/>
<path d="M21.1884 24.2921C23.5809 25.521 26.4191 25.521 28.8116 24.2921C31.0382 23.1483 32.6335 21.0651 33.1572 18.6174L33.297 17.9641C33.8326 15.461 33.2605 12.8485 31.7277 10.7984L31.5033 10.4981C29.9703 8.4477 27.5601 7.24031 25 7.24031C22.4398 7.24031 20.0296 8.4477 18.4967 10.4981L18.2722 10.7984C16.7395 12.8485 16.1673 15.461 16.703 17.9641L16.8427 18.6174C17.3665 21.0651 18.9618 23.1483 21.1884 24.2921Z" stroke="#F3E8E8" stroke-width="2" stroke-linecap="round" stroke-linejoin="round"/>
</svg>
